<?xml version="1.0" encoding="utf-8"?>
<!-- Generator: Adobe Illustrator 17.1.0, SVG Export Plug-In . SVG Version: 6.00 Build 0)  -->
<!DOCTYPE svg PUBLIC "-//W3C//DTD SVG 1.1//EN" "http://www.w3.org/Graphics/SVG/1.1/DTD/svg11.dtd">
<svg version="1.1" id="Layer_1" xmlns="http://www.w3.org/2000/svg" xmlns:xlink="http://www.w3.org/1999/xlink" x="0px" y="0px"
	 viewBox="48.1 123.4 863.6 314.2" enable-background="new 48.1 123.4 863.6 314.2" xml:space="preserve">
<g id="Glyph">
	<path fill="#11242F" d="M454.3,288.4c-38.5,0-74.3-31.3-74.3-69.8c0.1-35.1,9-48.6,9-63c0-17.2-13.7-31.3-30.7-32.2
		c-1-0.1-2,0.5-2.6,1.4c-11.8,20.9-18.6,45.2-18.6,70.9c0,59.8,48.6,108.3,108.3,108.3c39.8,0,72.1-31.9,72.1-72.7
		c0.5-16.1-13.7-35.5-35.9-35.5c-22.2,0-36.4,17.5-36.4,36.7c0,12.2,7.3,25.3,19.4,31.7C476.5,270.4,475.6,288.4,454.3,288.4z"/>
	<path fill="#11242F" d="M512.1,303.8c-4-0.3-7.2-3.6-7.2-7.7c0-4.3,3.5-7.7,7.7-7.7c37.2-1.9,70.8-32.4,70.7-69.7
		c-0.1-35.1-9-48.6-9-63c0-17.2,13.7-31.3,30.7-32.2c1-0.1,2,0.5,2.6,1.4c11.8,20.9,18.6,45.2,18.6,70.9
		c0,59.8-48.6,108.3-108.3,108.3C515.9,304,514,303.9,512.1,303.8z"/>
</g>
<g id="Logotype" enable-background="new    ">
	<path fill="#11242F" d="M85.9,350h18.6l8.7,27.7l8.9-27.7h18.5L126,390.3l8.8,23.3l21.9-63.8h21.8l-34.6,86.8H127l-13.7-34
		l-13.8,34H82.7l-34.6-86.8h21.6l22,63.8l8.6-23.3L85.9,350z"/>
	<path fill="#11242F" d="M186.1,436.6v-86.8h20v86.8L186.1,436.6L186.1,436.6z"/>
	<path fill="#11242F" d="M222.8,436.6v-86.8h20V389l33.5-39.1h20.8l-32.5,38.7l34.7,48h-21.1l-25.4-36.8l-9.9,10.8v26H222.8z"/>
	<path fill="#11242F" d="M305.6,436.6v-86.8h20v86.8L305.6,436.6L305.6,436.6z"/>
	<path fill="#11242F" d="M408.3,367.4h-26.4v69.2h-20v-69.2h-26.5v-17.6h73v17.6H408.3z"/>
	<path fill="#11242F" d="M452.4,437.4c-6.2,0-11.8-1.3-16.9-3.8s-9.4-5.8-13-10c-3.6-4.1-6.4-8.8-8.4-14.1c-2-5.3-3-10.8-3-16.4
		c0-5.7,1-11.2,3.1-16.5s5-10,8.7-14s8.1-7.3,13.2-9.7c5.1-2.4,10.7-3.6,16.7-3.6c6.2,0,11.8,1.3,16.9,3.8s9.4,5.9,13,10
		c3.6,4.2,6.4,8.9,8.4,14.2c2,5.3,2.9,10.7,2.9,16.1c0,5.7-1,11.2-3.1,16.5s-5,10-8.6,14c-3.7,4-8,7.3-13.1,9.7
		C463.9,436.1,458.4,437.4,452.4,437.4z M431.4,393.4c0,3.3,0.5,6.6,1.4,9.7s2.3,5.9,4,8.4c1.8,2.4,4,4.4,6.6,5.9s5.7,2.2,9.1,2.2
		c3.5,0,6.6-0.8,9.2-2.3s4.8-3.6,6.5-6.1c1.8-2.5,3.1-5.3,3.9-8.4c0.9-3.1,1.3-6.3,1.3-9.6c0-3.3-0.5-6.6-1.4-9.7s-2.3-5.9-4.1-8.3
		c-1.8-2.4-4-4.3-6.6-5.7c-2.6-1.4-5.6-2.1-8.9-2.1c-3.5,0-6.6,0.8-9.2,2.3s-4.8,3.5-6.5,5.9c-1.8,2.4-3.1,5.2-4,8.4
		C431.9,386.9,431.4,390.1,431.4,393.4z"/>
	<path fill="#11242F" d="M525.7,387v49.6h-20v-86.8h15.6l40.5,51v-51h20v86.8h-16.1L525.7,387z"/>
	<path fill="#11242F" d="M654.6,428.2c-3.1,3.1-6.4,5.4-9.8,6.8c-3.5,1.5-7.2,2.2-11.3,2.2c-5.5,0-10.6-1.2-15.5-3.7
		c-4.8-2.4-9.1-5.7-12.7-9.8c-3.6-4.1-6.5-8.8-8.6-14.2c-2.1-5.4-3.2-11.1-3.2-16.9c0-5.9,1.1-11.6,3.2-16.9
		c2.1-5.3,5.1-9.9,8.8-13.8s8.1-7,13.2-9.3c5.1-2.3,10.5-3.4,16.4-3.4c7.7,0,14.4,1.7,20.2,5.1s10.1,8,13,13.9l-15,11.2
		c-1.8-3.9-4.4-6.9-7.8-9.1c-3.4-2.2-7-3.2-10.9-3.2c-3.1,0-5.9,0.7-8.4,2s-4.6,3.2-6.5,5.6c-1.8,2.4-3.2,5.2-4.2,8.4
		c-1,3.2-1.5,6.6-1.5,10.3c0,3.7,0.5,7.2,1.6,10.4c1.1,3.2,2.5,5.9,4.4,8.2c1.9,2.3,4.1,4.1,6.7,5.4c2.6,1.3,5.5,2,8.6,2
		c3.6,0,7-0.9,10.3-2.6c3.3-1.8,6.3-4.4,9.2-8v-2.9h-16.7v-14.5h33.4v45.3h-16.6v-8.5H654.6z"/>
	<path fill="#11242F" d="M721.7,419.5c3.4,0,6.3-0.7,8.7-2.1s4.3-3.3,5.7-5.7c1.5-2.4,2.5-5.1,3.1-8.1c0.6-3.1,0.9-6.2,0.9-9.4
		v-44.4h20v44.4c0,6-0.8,11.7-2.3,16.9c-1.5,5.2-3.8,9.8-7,13.7c-3.1,3.9-7.1,7-12,9.2c-4.8,2.2-10.6,3.4-17.3,3.4
		c-6.9,0-12.8-1.2-17.7-3.5c-4.9-2.4-8.9-5.5-11.9-9.5c-3.1-4-5.3-8.5-6.7-13.8c-1.4-5.2-2.1-10.7-2.1-16.4v-44.4h20v44.4
		c0,3.3,0.3,6.5,1,9.5s1.7,5.7,3.2,8.1s3.4,4.2,5.7,5.6C715.4,418.8,718.3,419.5,721.7,419.5z"/>
	<path fill="#11242F" d="M836.6,419v17.6h-61v-86.8h59.9v17.6h-39.8v16.9h34.2v16.3h-34.2V419H836.6z"/>
	<path fill="#11242F" d="M900.4,375.3c-0.3-0.3-1.2-0.9-2.7-1.8s-3.3-1.8-5.5-2.8s-4.6-1.8-7.2-2.6c-2.6-0.7-5.2-1.1-7.8-1.1
		c-3.4,0-6,0.6-7.9,1.8c-1.8,1.2-2.8,3-2.8,5.4c0,1.5,0.4,2.7,1.2,3.7s2,1.9,3.5,2.6c1.5,0.8,3.4,1.5,5.6,2.1
		c2.2,0.7,4.8,1.4,7.8,2.2c4.2,1.1,7.9,2.4,11.2,3.7c3.3,1.3,6.2,3,8.6,5c2.4,2,4.2,4.4,5.4,7.3c1.3,2.9,1.9,6.3,1.9,10.3
		c0,4.9-0.9,9-2.8,12.4c-1.8,3.4-4.3,6.1-7.3,8.2s-6.5,3.6-10.5,4.5s-8,1.4-12.2,1.4c-3.2,0-6.4-0.2-9.7-0.7s-6.5-1.2-9.7-2.1
		s-6.3-2.1-9.3-3.4s-5.8-2.8-8.3-4.5l8.8-17.5c0.4,0.4,1.5,1.2,3.3,2.3c1.8,1.1,4,2.3,6.6,3.4s5.5,2.2,8.8,3.1s6.6,1.3,9.9,1.3
		c7.1,0,10.6-2.2,10.6-6.5c0-1.6-0.5-3-1.6-4c-1.1-1.1-2.5-2-4.4-2.9s-4.1-1.6-6.6-2.4c-2.5-0.7-5.3-1.5-8.3-2.4
		c-4-1.2-7.5-2.5-10.4-4c-2.9-1.4-5.4-3.1-7.3-5c-2-1.9-3.4-4-4.3-6.5c-0.9-2.4-1.4-5.3-1.4-8.6c0-4.6,0.9-8.6,2.6-12.1
		c1.7-3.5,4-6.5,7-8.9c2.9-2.4,6.3-4.2,10.2-5.4c3.9-1.2,8-1.8,12.3-1.8c3.1,0,6.1,0.3,9,0.9s5.7,1.3,8.4,2.2
		c2.6,0.9,5.2,1.9,7.5,3.1c2.4,1.1,4.5,2.3,6.4,3.4L900.4,375.3z"/>
</g>
</svg>
