<?xml version="1.0" encoding="utf-8"?>
<!-- Generator: Adobe Illustrator 17.1.0, SVG Export Plug-In . SVG Version: 6.00 Build 0)  -->
<!DOCTYPE svg PUBLIC "-//W3C//DTD SVG 1.1//EN" "http://www.w3.org/Graphics/SVG/1.1/DTD/svg11.dtd">
<svg version="1.1" id="Layer_1" xmlns="http://www.w3.org/2000/svg" xmlns:xlink="http://www.w3.org/1999/xlink" x="0px" y="0px"
	 viewBox="0 0 1992.85 814.39" enable-background="new 0 0 1992.85 814.39" xml:space="preserve">
<g>
	<path fill="#11242F" d="M943.047,424.639c-80.012,0-154.295-64.912-154.152-144.924c0.13-72.949,18.763-100.968,18.763-130.826
		c-0.001-35.751-28.434-64.953-63.747-66.815c-2.179-0.115-4.243,1.035-5.315,2.936c-24.507,43.477-38.669,93.803-38.669,147.258
		c0,124.067,100.801,224.784,224.868,224.784c82.561,0,149.737-66.177,149.737-150.823c1.108-33.334-28.506-73.762-74.604-73.762
		c-46.098,0-75.58,36.353-75.58,76.233c0,25.223,15.098,52.419,40.368,65.716C989.177,387.288,987.354,424.639,943.047,424.639z"/>
	<path fill="#11242F" d="M1063.13,456.581c-8.373-0.559-14.992-7.534-14.992-16.049c0-8.88,7.199-16.079,16.079-16.079
		c77.128-3.848,146.879-67.203,146.741-144.739c-0.13-72.949-18.764-100.968-18.763-130.826
		c0.001-35.751,28.434-64.953,63.747-66.815c2.179-0.115,4.243,1.035,5.314,2.936c24.507,43.477,38.669,93.803,38.669,147.258
		c0,124.067-100.8,224.784-224.867,224.784C1071.045,457.052,1067.067,456.889,1063.13,456.581z"/>
</g>
<text transform="matrix(1 0 0 1 101.1936 732.3235)" fill="#11242F" font-family="'Raleway-ExtraBold'" font-size="253.7385">WIKITONGUES</text>
</svg>
